<svg width="124" height="38" viewBox="0 0 124 38" fill="none" xmlns="http://www.w3.org/2000/svg">
<path d="M94.5558 27.0053C94.4474 27.3051 94.3318 27.5995 94.2053 27.8975C94.33 27.5995 94.4474 27.3087 94.5558 27.0053Z" fill="#21BF48"/>
<path d="M95.5512 22.8211C95.5151 23.1405 95.4681 23.4563 95.4121 23.7722C95.4663 23.4563 95.5132 23.1405 95.5512 22.8211Z" fill="#21BF48"/>
<path d="M95.6859 19.8145C95.6859 19.5076 95.661 19.2025 95.6379 18.8956C95.6628 19.1936 95.6788 19.4987 95.6859 19.8145Z" fill="#21BF48"/>
<path d="M95.6904 20.9012C95.6904 20.6389 95.6904 20.3748 95.6904 20.1125C95.6993 20.3748 95.6975 20.6371 95.6904 20.9012Z" fill="#21BF48"/>
<path d="M124 8.34141V23.2957C124 30.929 116.969 37.3758 108.645 37.3758C103.095 37.3758 98.1218 34.4941 95.4337 30.3045C97.3016 26.8608 98.1326 22.7497 97.7821 18.5673C97.4299 14.3349 95.8907 10.3987 93.4194 7.35825C93.6531 6.11041 94.3215 4.98268 95.3087 4.17054C96.2959 3.3584 97.5397 2.91307 98.8245 2.91174C100.282 2.91363 101.679 3.48635 102.709 4.50425C103.739 5.52215 104.318 6.90211 104.32 8.34141V23.2957C104.32 24.7874 106.208 26.52 108.643 26.52C110.843 26.52 113.002 24.923 113.002 23.2957V8.34141C113.003 7.62752 113.146 6.92076 113.423 6.26151C113.7 5.60225 114.106 5.00341 114.618 4.4992C115.13 3.99498 115.737 3.59527 116.405 3.32289C117.073 3.05051 117.789 2.9108 118.512 2.91174C119.968 2.91552 121.363 3.48907 122.391 4.50677C123.42 5.52446 123.998 6.90335 124 8.34141Z" fill="#21BF48"/>
<path d="M28.5481 11.1249C27.1079 13.9183 26.3611 17.01 26.3694 20.1447C26.3644 24.1713 27.5979 28.1045 29.9066 31.4233V31.7267C29.9051 33.1663 29.3255 34.5465 28.2949 35.5644C27.2643 36.5824 25.8669 37.1549 24.4094 37.1563C22.9522 37.1544 21.5553 36.5817 20.525 35.5638C19.4948 34.5459 18.9154 33.1659 18.914 31.7267V25.5725H10.9961V31.7267C10.9952 33.1661 10.4159 34.5463 9.38561 35.5643C8.35529 36.5823 6.95808 37.1549 5.50074 37.1563C4.04355 37.1544 2.64662 36.5817 1.6164 35.5638C0.586182 34.5459 0.00680502 33.1659 0.00537109 31.7267V8.56089C0.00728301 7.1219 0.586874 5.7424 1.61704 4.72488C2.64721 3.70736 4.04387 3.13489 5.50074 3.133C6.95777 3.13442 8.3547 3.70674 9.38497 4.72436C10.4152 5.74198 10.9947 7.12176 10.9961 8.56089V14.715H18.914V8.56089C18.9159 7.1219 19.4955 5.7424 20.5257 4.72488C21.5558 3.70736 22.9525 3.13489 24.4094 3.133C25.8666 3.13442 27.2637 3.70668 28.2943 4.72425C29.3248 5.74182 29.9047 7.12159 29.9066 8.56089V8.86957C29.4039 9.59097 28.9501 10.3444 28.5481 11.1249Z" fill="#21BF48"/>
<path d="M77.4267 13.9424C77.1828 13.9424 76.9353 13.9424 76.686 13.9424C76.9986 13.9424 77.3075 13.9424 77.611 13.9424H77.4267ZM86.2135 36.0286C86.4502 35.9269 86.6832 35.8216 86.9108 35.7092C86.6832 35.8198 86.4502 35.9269 86.2135 36.0286ZM94.2055 27.8904C94.3319 27.5995 94.4475 27.3051 94.5559 26.9982C94.4475 27.3087 94.3301 27.5995 94.2055 27.8904ZM95.4122 23.7722C95.4682 23.4563 95.5152 23.1405 95.5513 22.8211C95.5134 23.1405 95.4664 23.4563 95.4122 23.7722ZM95.638 18.8867C95.6615 19.1936 95.6778 19.4987 95.6868 19.8056C95.6796 19.4987 95.6633 19.1936 95.638 18.8867ZM95.694 20.1125C95.694 20.3748 95.694 20.6389 95.694 20.9012C95.6976 20.6371 95.6994 20.3748 95.694 20.1125Z" fill="#21BF48"/>
<path d="M95.694 20.1125C95.6631 16.936 94.845 13.8153 93.3112 11.0232C92.9172 10.3228 92.4735 9.65083 91.9834 9.01231C91.7829 8.75537 91.5787 8.50378 91.3638 8.25933C90.4019 7.15647 89.2799 6.20042 88.0344 5.42228C87.6672 5.1919 87.2886 4.97989 86.8999 4.78706C86.5549 4.60863 86.199 4.4516 85.8395 4.30351C84.1565 3.62993 82.3696 3.24436 80.5555 3.16333C78.5575 3.13299 76.3825 3.15083 74.3339 3.11515C72.0776 3.13299 69.7869 3.0188 67.5523 3.30786C64.978 3.92701 63.2275 6.409 63.4208 9.01766C68.0147 15.4769 67.9244 24.9445 63.4208 31.2806C63.3621 32.2444 63.5485 33.2074 63.9628 34.0819C64.4118 35.003 65.1148 35.7803 65.991 36.3245C66.8673 36.8686 67.8812 37.1576 68.9162 37.1581H73.3006C79.2331 37.1581 82.1524 37.2206 83.6898 36.878C86.6612 36.1725 89.3451 34.5913 91.3855 32.344C91.5661 32.1513 91.7323 31.9533 91.8967 31.7498C92.0611 31.5464 92.193 31.3751 92.3375 31.1842C94.6769 28.0028 95.75 24.0202 95.694 20.1125ZM84.8152 20.7067C84.7068 21.8701 84.4539 23.0531 83.8108 24.0452C83.6086 24.362 83.3657 24.6517 83.0882 24.907C82.5465 25.3834 81.904 25.7345 81.2076 25.9348C78.9892 26.5735 76.7022 26.2916 74.4079 26.3059V13.9941C75.1685 13.9941 75.9344 13.9638 76.6932 13.9531C79.6089 13.8781 83.1875 14.0369 84.313 17.2309C84.7221 18.3427 84.8931 19.5263 84.8152 20.7067Z" fill="#21BF48"/>
<path d="M56.7493 0.517181C56.8013 0.581973 56.8472 0.651251 56.8866 0.724168C56.8475 0.651119 56.8015 0.581821 56.7493 0.517181ZM36.2239 0.959699C36.2466 0.877795 36.2775 0.798303 36.316 0.722382C36.2767 0.797966 36.2458 0.877539 36.2239 0.959699Z" fill="#21BF48"/>
<path d="M63.4136 13.5694C62.1935 10.5453 60.1634 7.90598 57.5407 5.93437C57.5551 5.83801 57.0457 1.31478 57.0439 1.21664C57.0078 0.884293 56.8485 0.576867 56.5967 0.353532C56.3449 0.130197 56.0184 0.00672613 55.68 0.00687345C55.0495 -0.155499 51.7761 2.61019 51.2378 2.8814C48.204 2.09274 45.0151 2.09274 41.9813 2.8814C41.4177 2.59413 38.1876 -0.141225 37.5391 0.00687345C37.2007 0.00746825 36.8744 0.131152 36.6225 0.354305C36.3706 0.577458 36.2107 0.884449 36.1734 1.21664C36.1734 1.31657 35.6694 5.83266 35.6766 5.93259C22.0664 16.0372 29.3123 37.9967 46.6132 37.9967C59.1936 38.2412 68.2026 24.7946 63.4136 13.5694ZM46.6132 27.1302C37.3277 26.9679 37.2988 13.3446 46.577 13.1412C55.9004 13.2715 55.9347 26.9714 46.6132 27.1392V27.1302Z" fill="#21BF48"/>
</svg>
